<svg xmlns="http://www.w3.org/2000/svg" version="1.1" xmlns:xlink="http://www.w3.org/1999/xlink" xmlns:svgjs="http://svgjs.com/svgjs" width="1440" height="560" preserveAspectRatio="none" viewBox="0 0 1440 560"><g mask="url(&quot;#SvgjsMask1080&quot;)" fill="none"><rect width="1440" height="560" x="0" y="0" fill="#0e2a47"></rect><path d="M77.45 88.3L142.41 125.8L142.41 200.8L77.45 238.3L12.5 200.8L12.5 125.8zM77.45 538.3L142.41 575.8L142.41 650.8L77.45 688.3L12.5 650.8L12.5 575.8zM142.41 -24.2L207.36 13.3L207.36 88.3L142.41 125.8L77.45 88.3L77.45 13.3zM272.31 -24.2L337.27 13.3L337.27 88.3L272.31 125.8L207.36 88.3L207.36 13.3zM337.27 88.3L402.22 125.8L402.22 200.8L337.27 238.3L272.31 200.8L272.31 125.8zM272.31 200.8L337.27 238.3L337.27 313.3L272.31 350.8L207.36 313.3L207.36 238.3zM402.22 -24.2L467.18 13.3L467.18 88.3L402.22 125.8L337.27 88.3L337.27 13.3zM402.22 200.8L467.18 238.3L467.18 313.3L402.22 350.8L337.27 313.3L337.27 238.3zM467.18 313.3L532.13 350.8L532.13 425.8L467.18 463.3L402.22 425.8L402.22 350.8zM467.18 538.3L532.13 575.8L532.13 650.8L467.18 688.3L402.22 650.8L402.22 575.8zM532.13 200.8L597.08 238.3L597.08 313.3L532.13 350.8L467.18 313.3L467.18 238.3zM597.08 313.3L662.04 350.8L662.04 425.8L597.08 463.3L532.13 425.8L532.13 350.8zM532.13 425.8L597.08 463.3L597.08 538.3L532.13 575.8L467.18 538.3L467.18 463.3zM597.08 538.3L662.04 575.8L662.04 650.8L597.08 688.3L532.13 650.8L532.13 575.8zM662.04 200.8L726.99 238.3L726.99 313.3L662.04 350.8L597.08 313.3L597.08 238.3zM726.99 313.3L791.95 350.8L791.95 425.8L726.99 463.3L662.04 425.8L662.04 350.8zM662.04 425.8L726.99 463.3L726.99 538.3L662.04 575.8L597.08 538.3L597.08 463.3zM791.94 200.8L856.9 238.3L856.9 313.3L791.94 350.8L726.99 313.3L726.99 238.3zM856.9 313.3L921.85 350.8L921.85 425.8L856.9 463.3L791.94 425.8L791.94 350.8zM791.94 425.8L856.9 463.3L856.9 538.3L791.94 575.8L726.99 538.3L726.99 463.3zM921.85 -24.2L986.81 13.3L986.81 88.3L921.85 125.8L856.9 88.3L856.9 13.3zM921.85 425.8L986.81 463.3L986.81 538.3L921.85 575.8L856.9 538.3L856.9 463.3zM986.81 538.3L1051.76 575.8L1051.76 650.8L986.81 688.3L921.85 650.8L921.85 575.8zM1116.71 88.3L1181.67 125.8L1181.67 200.8L1116.71 238.3L1051.76 200.8L1051.76 125.8zM1181.67 200.8L1246.62 238.3L1246.62 313.3L1181.67 350.8L1116.71 313.3L1116.71 238.3zM1246.62 313.3L1311.57 350.8L1311.57 425.8L1246.62 463.3L1181.67 425.8L1181.67 350.8zM1181.67 425.8L1246.62 463.3L1246.62 538.3L1181.67 575.8L1116.71 538.3L1116.71 463.3zM1246.62 538.3L1311.57 575.8L1311.57 650.8L1246.62 688.3L1181.67 650.8L1181.67 575.8zM1376.53 88.3L1441.48 125.8L1441.48 200.8L1376.53 238.3L1311.58 200.8L1311.58 125.8zM1311.58 200.8L1376.53 238.3L1376.53 313.3L1311.58 350.8L1246.62 313.3L1246.62 238.3zM1376.53 313.3L1441.48 350.8L1441.48 425.8L1376.53 463.3L1311.58 425.8L1311.58 350.8zM1376.53 538.3L1441.48 575.8L1441.48 650.8L1376.53 688.3L1311.58 650.8L1311.58 575.8zM1441.48 200.8L1506.44 238.3L1506.44 313.3L1441.48 350.8L1376.53 313.3L1376.53 238.3z" stroke="#03305d" stroke-width="2"></path><path d="M69.95 88.3 a7.5 7.5 0 1 0 15 0 a7.5 7.5 0 1 0 -15 0zM134.91 125.8 a7.5 7.5 0 1 0 15 0 a7.5 7.5 0 1 0 -15 0zM134.91 200.8 a7.5 7.5 0 1 0 15 0 a7.5 7.5 0 1 0 -15 0zM69.95 238.3 a7.5 7.5 0 1 0 15 0 a7.5 7.5 0 1 0 -15 0zM5 200.8 a7.5 7.5 0 1 0 15 0 a7.5 7.5 0 1 0 -15 0zM5 125.8 a7.5 7.5 0 1 0 15 0 a7.5 7.5 0 1 0 -15 0zM69.95 538.3 a7.5 7.5 0 1 0 15 0 a7.5 7.5 0 1 0 -15 0zM134.91 575.8 a7.5 7.5 0 1 0 15 0 a7.5 7.5 0 1 0 -15 0zM134.91 650.8 a7.5 7.5 0 1 0 15 0 a7.5 7.5 0 1 0 -15 0zM69.95 688.3 a7.5 7.5 0 1 0 15 0 a7.5 7.5 0 1 0 -15 0zM5 650.8 a7.5 7.5 0 1 0 15 0 a7.5 7.5 0 1 0 -15 0zM5 575.8 a7.5 7.5 0 1 0 15 0 a7.5 7.5 0 1 0 -15 0zM134.91 -24.2 a7.5 7.5 0 1 0 15 0 a7.5 7.5 0 1 0 -15 0zM199.86 13.3 a7.5 7.5 0 1 0 15 0 a7.5 7.5 0 1 0 -15 0zM199.86 88.3 a7.5 7.5 0 1 0 15 0 a7.5 7.5 0 1 0 -15 0zM69.95 13.3 a7.5 7.5 0 1 0 15 0 a7.5 7.5 0 1 0 -15 0zM264.81 -24.2 a7.5 7.5 0 1 0 15 0 a7.5 7.5 0 1 0 -15 0zM329.77 13.3 a7.5 7.5 0 1 0 15 0 a7.5 7.5 0 1 0 -15 0zM329.77 88.3 a7.5 7.5 0 1 0 15 0 a7.5 7.5 0 1 0 -15 0zM264.81 125.8 a7.5 7.5 0 1 0 15 0 a7.5 7.5 0 1 0 -15 0zM394.72 125.8 a7.5 7.5 0 1 0 15 0 a7.5 7.5 0 1 0 -15 0zM394.72 200.8 a7.5 7.5 0 1 0 15 0 a7.5 7.5 0 1 0 -15 0zM329.77 238.3 a7.5 7.5 0 1 0 15 0 a7.5 7.5 0 1 0 -15 0zM264.81 200.8 a7.5 7.5 0 1 0 15 0 a7.5 7.5 0 1 0 -15 0zM329.77 313.3 a7.5 7.5 0 1 0 15 0 a7.5 7.5 0 1 0 -15 0zM264.81 350.8 a7.5 7.5 0 1 0 15 0 a7.5 7.5 0 1 0 -15 0zM199.86 313.3 a7.5 7.5 0 1 0 15 0 a7.5 7.5 0 1 0 -15 0zM199.86 238.3 a7.5 7.5 0 1 0 15 0 a7.5 7.5 0 1 0 -15 0zM394.72 -24.2 a7.5 7.5 0 1 0 15 0 a7.5 7.5 0 1 0 -15 0zM459.68 13.3 a7.5 7.5 0 1 0 15 0 a7.5 7.5 0 1 0 -15 0zM459.68 88.3 a7.5 7.5 0 1 0 15 0 a7.5 7.5 0 1 0 -15 0zM459.68 238.3 a7.5 7.5 0 1 0 15 0 a7.5 7.5 0 1 0 -15 0zM459.68 313.3 a7.5 7.5 0 1 0 15 0 a7.5 7.5 0 1 0 -15 0zM394.72 350.8 a7.5 7.5 0 1 0 15 0 a7.5 7.5 0 1 0 -15 0zM524.63 350.8 a7.5 7.5 0 1 0 15 0 a7.5 7.5 0 1 0 -15 0zM524.63 425.8 a7.5 7.5 0 1 0 15 0 a7.5 7.5 0 1 0 -15 0zM459.68 463.3 a7.5 7.5 0 1 0 15 0 a7.5 7.5 0 1 0 -15 0zM394.72 425.8 a7.5 7.5 0 1 0 15 0 a7.5 7.5 0 1 0 -15 0zM459.68 538.3 a7.5 7.5 0 1 0 15 0 a7.5 7.5 0 1 0 -15 0zM524.63 575.8 a7.5 7.5 0 1 0 15 0 a7.5 7.5 0 1 0 -15 0zM524.63 650.8 a7.5 7.5 0 1 0 15 0 a7.5 7.5 0 1 0 -15 0zM459.68 688.3 a7.5 7.5 0 1 0 15 0 a7.5 7.5 0 1 0 -15 0zM394.72 650.8 a7.5 7.5 0 1 0 15 0 a7.5 7.5 0 1 0 -15 0zM394.72 575.8 a7.5 7.5 0 1 0 15 0 a7.5 7.5 0 1 0 -15 0zM524.63 200.8 a7.5 7.5 0 1 0 15 0 a7.5 7.5 0 1 0 -15 0zM589.58 238.3 a7.5 7.5 0 1 0 15 0 a7.5 7.5 0 1 0 -15 0zM589.58 313.3 a7.5 7.5 0 1 0 15 0 a7.5 7.5 0 1 0 -15 0zM654.54 350.8 a7.5 7.5 0 1 0 15 0 a7.5 7.5 0 1 0 -15 0zM654.54 425.8 a7.5 7.5 0 1 0 15 0 a7.5 7.5 0 1 0 -15 0zM589.58 463.3 a7.5 7.5 0 1 0 15 0 a7.5 7.5 0 1 0 -15 0zM589.58 538.3 a7.5 7.5 0 1 0 15 0 a7.5 7.5 0 1 0 -15 0zM654.54 575.8 a7.5 7.5 0 1 0 15 0 a7.5 7.5 0 1 0 -15 0zM654.54 650.8 a7.5 7.5 0 1 0 15 0 a7.5 7.5 0 1 0 -15 0zM589.58 688.3 a7.5 7.5 0 1 0 15 0 a7.5 7.5 0 1 0 -15 0zM654.54 200.8 a7.5 7.5 0 1 0 15 0 a7.5 7.5 0 1 0 -15 0zM719.49 238.3 a7.5 7.5 0 1 0 15 0 a7.5 7.5 0 1 0 -15 0zM719.49 313.3 a7.5 7.5 0 1 0 15 0 a7.5 7.5 0 1 0 -15 0zM784.45 350.8 a7.5 7.5 0 1 0 15 0 a7.5 7.5 0 1 0 -15 0zM784.45 425.8 a7.5 7.5 0 1 0 15 0 a7.5 7.5 0 1 0 -15 0zM719.49 463.3 a7.5 7.5 0 1 0 15 0 a7.5 7.5 0 1 0 -15 0zM719.49 538.3 a7.5 7.5 0 1 0 15 0 a7.5 7.5 0 1 0 -15 0zM784.44 200.8 a7.5 7.5 0 1 0 15 0 a7.5 7.5 0 1 0 -15 0zM849.4 238.3 a7.5 7.5 0 1 0 15 0 a7.5 7.5 0 1 0 -15 0zM849.4 313.3 a7.5 7.5 0 1 0 15 0 a7.5 7.5 0 1 0 -15 0zM784.44 350.8 a7.5 7.5 0 1 0 15 0 a7.5 7.5 0 1 0 -15 0zM914.35 350.8 a7.5 7.5 0 1 0 15 0 a7.5 7.5 0 1 0 -15 0zM914.35 425.8 a7.5 7.5 0 1 0 15 0 a7.5 7.5 0 1 0 -15 0zM849.4 463.3 a7.5 7.5 0 1 0 15 0 a7.5 7.5 0 1 0 -15 0zM784.44 425.8 a7.5 7.5 0 1 0 15 0 a7.5 7.5 0 1 0 -15 0zM849.4 538.3 a7.5 7.5 0 1 0 15 0 a7.5 7.5 0 1 0 -15 0zM784.44 575.8 a7.5 7.5 0 1 0 15 0 a7.5 7.5 0 1 0 -15 0zM914.35 -24.2 a7.5 7.5 0 1 0 15 0 a7.5 7.5 0 1 0 -15 0zM979.31 13.3 a7.5 7.5 0 1 0 15 0 a7.5 7.5 0 1 0 -15 0zM979.31 88.3 a7.5 7.5 0 1 0 15 0 a7.5 7.5 0 1 0 -15 0zM914.35 125.8 a7.5 7.5 0 1 0 15 0 a7.5 7.5 0 1 0 -15 0zM849.4 88.3 a7.5 7.5 0 1 0 15 0 a7.5 7.5 0 1 0 -15 0zM849.4 13.3 a7.5 7.5 0 1 0 15 0 a7.5 7.5 0 1 0 -15 0zM979.31 463.3 a7.5 7.5 0 1 0 15 0 a7.5 7.5 0 1 0 -15 0zM979.31 538.3 a7.5 7.5 0 1 0 15 0 a7.5 7.5 0 1 0 -15 0zM914.35 575.8 a7.5 7.5 0 1 0 15 0 a7.5 7.5 0 1 0 -15 0zM1044.26 575.8 a7.5 7.5 0 1 0 15 0 a7.5 7.5 0 1 0 -15 0zM1044.26 650.8 a7.5 7.5 0 1 0 15 0 a7.5 7.5 0 1 0 -15 0zM979.31 688.3 a7.5 7.5 0 1 0 15 0 a7.5 7.5 0 1 0 -15 0zM914.35 650.8 a7.5 7.5 0 1 0 15 0 a7.5 7.5 0 1 0 -15 0zM1109.21 88.3 a7.5 7.5 0 1 0 15 0 a7.5 7.5 0 1 0 -15 0zM1174.17 125.8 a7.5 7.5 0 1 0 15 0 a7.5 7.5 0 1 0 -15 0zM1174.17 200.8 a7.5 7.5 0 1 0 15 0 a7.5 7.5 0 1 0 -15 0zM1109.21 238.3 a7.5 7.5 0 1 0 15 0 a7.5 7.5 0 1 0 -15 0zM1044.26 200.8 a7.5 7.5 0 1 0 15 0 a7.5 7.5 0 1 0 -15 0zM1044.26 125.8 a7.5 7.5 0 1 0 15 0 a7.5 7.5 0 1 0 -15 0zM1239.12 238.3 a7.5 7.5 0 1 0 15 0 a7.5 7.5 0 1 0 -15 0zM1239.12 313.3 a7.5 7.5 0 1 0 15 0 a7.5 7.5 0 1 0 -15 0zM1174.17 350.8 a7.5 7.5 0 1 0 15 0 a7.5 7.5 0 1 0 -15 0zM1109.21 313.3 a7.5 7.5 0 1 0 15 0 a7.5 7.5 0 1 0 -15 0zM1304.07 350.8 a7.5 7.5 0 1 0 15 0 a7.5 7.5 0 1 0 -15 0zM1304.07 425.8 a7.5 7.5 0 1 0 15 0 a7.5 7.5 0 1 0 -15 0zM1239.12 463.3 a7.5 7.5 0 1 0 15 0 a7.5 7.5 0 1 0 -15 0zM1174.17 425.8 a7.5 7.5 0 1 0 15 0 a7.5 7.5 0 1 0 -15 0zM1239.12 538.3 a7.5 7.5 0 1 0 15 0 a7.5 7.5 0 1 0 -15 0zM1174.17 575.8 a7.5 7.5 0 1 0 15 0 a7.5 7.5 0 1 0 -15 0zM1109.21 538.3 a7.5 7.5 0 1 0 15 0 a7.5 7.5 0 1 0 -15 0zM1109.21 463.3 a7.5 7.5 0 1 0 15 0 a7.5 7.5 0 1 0 -15 0zM1304.07 575.8 a7.5 7.5 0 1 0 15 0 a7.5 7.5 0 1 0 -15 0zM1304.07 650.8 a7.5 7.5 0 1 0 15 0 a7.5 7.5 0 1 0 -15 0zM1239.12 688.3 a7.5 7.5 0 1 0 15 0 a7.5 7.5 0 1 0 -15 0zM1174.17 650.8 a7.5 7.5 0 1 0 15 0 a7.5 7.5 0 1 0 -15 0zM1369.03 88.3 a7.5 7.5 0 1 0 15 0 a7.5 7.5 0 1 0 -15 0zM1433.98 125.8 a7.5 7.5 0 1 0 15 0 a7.5 7.5 0 1 0 -15 0zM1433.98 200.8 a7.5 7.5 0 1 0 15 0 a7.5 7.5 0 1 0 -15 0zM1369.03 238.3 a7.5 7.5 0 1 0 15 0 a7.5 7.5 0 1 0 -15 0zM1304.08 200.8 a7.5 7.5 0 1 0 15 0 a7.5 7.5 0 1 0 -15 0zM1304.08 125.8 a7.5 7.5 0 1 0 15 0 a7.5 7.5 0 1 0 -15 0zM1369.03 313.3 a7.5 7.5 0 1 0 15 0 a7.5 7.5 0 1 0 -15 0zM1304.08 350.8 a7.5 7.5 0 1 0 15 0 a7.5 7.5 0 1 0 -15 0zM1433.98 350.8 a7.5 7.5 0 1 0 15 0 a7.5 7.5 0 1 0 -15 0zM1433.98 425.8 a7.5 7.5 0 1 0 15 0 a7.5 7.5 0 1 0 -15 0zM1369.03 463.3 a7.5 7.5 0 1 0 15 0 a7.5 7.5 0 1 0 -15 0zM1304.08 425.8 a7.5 7.5 0 1 0 15 0 a7.5 7.5 0 1 0 -15 0zM1369.03 538.3 a7.5 7.5 0 1 0 15 0 a7.5 7.5 0 1 0 -15 0zM1433.98 575.8 a7.5 7.5 0 1 0 15 0 a7.5 7.5 0 1 0 -15 0zM1433.98 650.8 a7.5 7.5 0 1 0 15 0 a7.5 7.5 0 1 0 -15 0zM1369.03 688.3 a7.5 7.5 0 1 0 15 0 a7.5 7.5 0 1 0 -15 0zM1304.08 650.8 a7.5 7.5 0 1 0 15 0 a7.5 7.5 0 1 0 -15 0zM1304.08 575.8 a7.5 7.5 0 1 0 15 0 a7.5 7.5 0 1 0 -15 0zM1498.94 238.3 a7.5 7.5 0 1 0 15 0 a7.5 7.5 0 1 0 -15 0zM1498.94 313.3 a7.5 7.5 0 1 0 15 0 a7.5 7.5 0 1 0 -15 0z" fill="#03305d"></path><path d="M31.72 165.34L100.14 204.84L100.14 283.84L31.72 323.34L-36.7 283.84L-36.7 204.84zM31.72 402.34L100.14 441.84L100.14 520.84L31.72 560.34L-36.7 520.84L-36.7 441.84zM168.56 402.34L236.97 441.84L236.97 520.84L168.56 560.34L100.14 520.84L100.14 441.84zM236.97 520.84L305.39 560.34L305.39 639.34L236.97 678.84L168.56 639.34L168.56 560.34zM305.39 -71.66L373.81 -32.16L373.81 46.84L305.39 86.34L236.97 46.84L236.97 -32.16zM373.81 46.84L442.23 86.34L442.23 165.34L373.81 204.84L305.39 165.34L305.39 86.34zM373.81 520.84L442.23 560.34L442.23 639.34L373.81 678.84L305.39 639.34L305.39 560.34zM442.23 -71.66L510.65 -32.16L510.65 46.84L442.23 86.34L373.81 46.84L373.81 -32.16zM442.23 402.34L510.65 441.84L510.65 520.84L442.23 560.34L373.81 520.84L373.81 441.84zM579.06 402.34L647.48 441.84L647.48 520.84L579.06 560.34L510.65 520.84L510.65 441.84zM647.48 520.84L715.9 560.34L715.9 639.34L647.48 678.84L579.06 639.34L579.06 560.34zM784.32 46.84L852.74 86.34L852.74 165.34L784.32 204.84L715.9 165.34L715.9 86.34zM715.9 165.34L784.32 204.84L784.32 283.84L715.9 323.34L647.48 283.84L647.48 204.84zM852.74 -71.66L921.15 -32.16L921.15 46.84L852.74 86.34L784.32 46.84L784.32 -32.16zM921.15 520.84L989.57 560.34L989.57 639.34L921.15 678.84L852.74 639.34L852.74 560.34zM989.57 -71.66L1057.99 -32.16L1057.99 46.84L989.57 86.34L921.15 46.84L921.15 -32.16zM989.57 165.34L1057.99 204.84L1057.99 283.84L989.57 323.34L921.15 283.84L921.15 204.84zM1057.99 283.84L1126.41 323.34L1126.41 402.34L1057.99 441.84L989.57 402.34L989.57 323.34zM1126.41 -71.66L1194.83 -32.16L1194.83 46.84L1126.41 86.34L1057.99 46.84L1057.99 -32.16zM1194.83 520.84L1263.24 560.34L1263.24 639.34L1194.83 678.84L1126.41 639.34L1126.41 560.34zM1263.24 -71.66L1331.66 -32.16L1331.66 46.84L1263.24 86.34L1194.83 46.84L1194.83 -32.16zM1263.24 402.34L1331.66 441.84L1331.66 520.84L1263.24 560.34L1194.83 520.84L1194.83 441.84zM1400.08 -71.66L1468.5 -32.16L1468.5 46.84L1400.08 86.34L1331.66 46.84L1331.66 -32.16zM1468.5 46.84L1536.91 86.34L1536.91 165.34L1468.5 204.84L1400.08 165.34L1400.08 86.34zM1400.08 165.34L1468.5 204.84L1468.5 283.84L1400.08 323.34L1331.66 283.84L1331.66 204.84zM1400.08 402.34L1468.5 441.84L1468.5 520.84L1400.08 560.34L1331.66 520.84L1331.66 441.84zM1468.5 520.84L1536.91 560.34L1536.91 639.34L1468.5 678.84L1400.08 639.34L1400.08 560.34z" stroke="rgba(6, 80, 156, 0.93)" stroke-width="2"></path></g><defs><mask id="SvgjsMask1080"><rect width="1440" height="560" fill="#ffffff"></rect></mask></defs></svg>