<svg xmlns="http://www.w3.org/2000/svg" version="1.1" xmlns:xlink="http://www.w3.org/1999/xlink" xmlns:svgjs="http://svgjs.com/svgjs" width="1440" height="560" preserveAspectRatio="none" viewBox="0 0 1440 560"><g mask="url(&quot;#SvgjsMask1055&quot;)" fill="none"><rect width="1440" height="560" x="0" y="0" fill="rgba(213, 226, 188, 1)"></rect><path d="M17.14 223.62L82.09 261.12L82.09 336.12L17.14 373.62L-47.81 336.12L-47.81 261.12zM147.05 -1.38L212 36.12L212 111.12L147.05 148.62L82.09 111.12L82.09 36.12zM212 111.12L276.95 148.62L276.95 223.62L212 261.12L147.05 223.62L147.05 148.62zM212 336.12L276.95 373.62L276.95 448.62L212 486.12L147.05 448.62L147.05 373.62zM341.91 111.12L406.86 148.62L406.86 223.62L341.91 261.12L276.95 223.62L276.95 148.62zM276.95 223.62L341.91 261.12L341.91 336.12L276.95 373.62L212 336.12L212 261.12zM341.91 336.12L406.86 373.62L406.86 448.62L341.91 486.12L276.95 448.62L276.95 373.62zM276.95 448.62L341.91 486.12L341.91 561.12L276.95 598.62L212 561.12L212 486.12zM406.86 -1.38L471.82 36.12L471.82 111.12L406.86 148.62L341.91 111.12L341.91 36.12zM536.77 -1.38L601.72 36.12L601.72 111.12L536.77 148.62L471.82 111.12L471.82 36.12zM536.77 223.62L601.72 261.12L601.72 336.12L536.77 373.62L471.82 336.12L471.82 261.12zM601.72 336.12L666.68 373.62L666.68 448.62L601.72 486.12L536.77 448.62L536.77 373.62zM536.77 448.62L601.72 486.12L601.72 561.12L536.77 598.62L471.82 561.12L471.82 486.12zM731.63 111.12L796.59 148.62L796.59 223.62L731.63 261.12L666.68 223.62L666.68 148.62zM861.54 561.12L926.49 598.62L926.49 673.62L861.54 711.12L796.58 673.62L796.58 598.62zM926.49 448.62L991.45 486.12L991.45 561.12L926.49 598.62L861.54 561.12L861.54 486.12zM991.45 561.12L1056.4 598.62L1056.4 673.62L991.45 711.12L926.49 673.62L926.49 598.62zM1056.4 -1.38L1121.35 36.12L1121.35 111.12L1056.4 148.62L991.45 111.12L991.45 36.12zM1056.4 223.62L1121.35 261.12L1121.35 336.12L1056.4 373.62L991.45 336.12L991.45 261.12zM1121.35 336.12L1186.31 373.62L1186.31 448.62L1121.35 486.12L1056.4 448.62L1056.4 373.62zM1121.35 561.12L1186.31 598.62L1186.31 673.62L1121.35 711.12L1056.4 673.62L1056.4 598.62zM1251.26 561.12L1316.21 598.62L1316.21 673.62L1251.26 711.12L1186.31 673.62L1186.31 598.62zM1316.22 223.62L1381.17 261.12L1381.17 336.12L1316.22 373.62L1251.26 336.12L1251.26 261.12zM1446.12 -1.38L1511.08 36.12L1511.08 111.12L1446.12 148.62L1381.17 111.12L1381.17 36.12zM1446.12 223.62L1511.08 261.12L1511.08 336.12L1446.12 373.62L1381.17 336.12L1381.17 261.12zM1446.12 448.62L1511.08 486.12L1511.08 561.12L1446.12 598.62L1381.17 561.12L1381.17 486.12z" stroke="rgba(0, 0, 0, 0)" stroke-width="2"></path><path d="M9.64 223.62 a7.5 7.5 0 1 0 15 0 a7.5 7.5 0 1 0 -15 0zM74.59 261.12 a7.5 7.5 0 1 0 15 0 a7.5 7.5 0 1 0 -15 0zM74.59 336.12 a7.5 7.5 0 1 0 15 0 a7.5 7.5 0 1 0 -15 0zM9.64 373.62 a7.5 7.5 0 1 0 15 0 a7.5 7.5 0 1 0 -15 0zM-55.31 336.12 a7.5 7.5 0 1 0 15 0 a7.5 7.5 0 1 0 -15 0zM-55.31 261.12 a7.5 7.5 0 1 0 15 0 a7.5 7.5 0 1 0 -15 0zM139.55 -1.38 a7.5 7.5 0 1 0 15 0 a7.5 7.5 0 1 0 -15 0zM204.5 36.12 a7.5 7.5 0 1 0 15 0 a7.5 7.5 0 1 0 -15 0zM204.5 111.12 a7.5 7.5 0 1 0 15 0 a7.5 7.5 0 1 0 -15 0zM139.55 148.62 a7.5 7.5 0 1 0 15 0 a7.5 7.5 0 1 0 -15 0zM74.59 111.12 a7.5 7.5 0 1 0 15 0 a7.5 7.5 0 1 0 -15 0zM74.59 36.12 a7.5 7.5 0 1 0 15 0 a7.5 7.5 0 1 0 -15 0zM269.45 148.62 a7.5 7.5 0 1 0 15 0 a7.5 7.5 0 1 0 -15 0zM269.45 223.62 a7.5 7.5 0 1 0 15 0 a7.5 7.5 0 1 0 -15 0zM204.5 261.12 a7.5 7.5 0 1 0 15 0 a7.5 7.5 0 1 0 -15 0zM139.55 223.62 a7.5 7.5 0 1 0 15 0 a7.5 7.5 0 1 0 -15 0zM204.5 336.12 a7.5 7.5 0 1 0 15 0 a7.5 7.5 0 1 0 -15 0zM269.45 373.62 a7.5 7.5 0 1 0 15 0 a7.5 7.5 0 1 0 -15 0zM269.45 448.62 a7.5 7.5 0 1 0 15 0 a7.5 7.5 0 1 0 -15 0zM204.5 486.12 a7.5 7.5 0 1 0 15 0 a7.5 7.5 0 1 0 -15 0zM139.55 448.62 a7.5 7.5 0 1 0 15 0 a7.5 7.5 0 1 0 -15 0zM139.55 373.62 a7.5 7.5 0 1 0 15 0 a7.5 7.5 0 1 0 -15 0zM334.41 111.12 a7.5 7.5 0 1 0 15 0 a7.5 7.5 0 1 0 -15 0zM399.36 148.62 a7.5 7.5 0 1 0 15 0 a7.5 7.5 0 1 0 -15 0zM399.36 223.62 a7.5 7.5 0 1 0 15 0 a7.5 7.5 0 1 0 -15 0zM334.41 261.12 a7.5 7.5 0 1 0 15 0 a7.5 7.5 0 1 0 -15 0zM334.41 336.12 a7.5 7.5 0 1 0 15 0 a7.5 7.5 0 1 0 -15 0zM399.36 373.62 a7.5 7.5 0 1 0 15 0 a7.5 7.5 0 1 0 -15 0zM399.36 448.62 a7.5 7.5 0 1 0 15 0 a7.5 7.5 0 1 0 -15 0zM334.41 486.12 a7.5 7.5 0 1 0 15 0 a7.5 7.5 0 1 0 -15 0zM334.41 561.12 a7.5 7.5 0 1 0 15 0 a7.5 7.5 0 1 0 -15 0zM269.45 598.62 a7.5 7.5 0 1 0 15 0 a7.5 7.5 0 1 0 -15 0zM204.5 561.12 a7.5 7.5 0 1 0 15 0 a7.5 7.5 0 1 0 -15 0zM399.36 -1.38 a7.5 7.5 0 1 0 15 0 a7.5 7.5 0 1 0 -15 0zM464.32 36.12 a7.5 7.5 0 1 0 15 0 a7.5 7.5 0 1 0 -15 0zM464.32 111.12 a7.5 7.5 0 1 0 15 0 a7.5 7.5 0 1 0 -15 0zM334.41 36.12 a7.5 7.5 0 1 0 15 0 a7.5 7.5 0 1 0 -15 0zM529.27 -1.38 a7.5 7.5 0 1 0 15 0 a7.5 7.5 0 1 0 -15 0zM594.22 36.12 a7.5 7.5 0 1 0 15 0 a7.5 7.5 0 1 0 -15 0zM594.22 111.12 a7.5 7.5 0 1 0 15 0 a7.5 7.5 0 1 0 -15 0zM529.27 148.62 a7.5 7.5 0 1 0 15 0 a7.5 7.5 0 1 0 -15 0zM529.27 223.62 a7.5 7.5 0 1 0 15 0 a7.5 7.5 0 1 0 -15 0zM594.22 261.12 a7.5 7.5 0 1 0 15 0 a7.5 7.5 0 1 0 -15 0zM594.22 336.12 a7.5 7.5 0 1 0 15 0 a7.5 7.5 0 1 0 -15 0zM529.27 373.62 a7.5 7.5 0 1 0 15 0 a7.5 7.5 0 1 0 -15 0zM464.32 336.12 a7.5 7.5 0 1 0 15 0 a7.5 7.5 0 1 0 -15 0zM464.32 261.12 a7.5 7.5 0 1 0 15 0 a7.5 7.5 0 1 0 -15 0zM659.18 373.62 a7.5 7.5 0 1 0 15 0 a7.5 7.5 0 1 0 -15 0zM659.18 448.62 a7.5 7.5 0 1 0 15 0 a7.5 7.5 0 1 0 -15 0zM594.22 486.12 a7.5 7.5 0 1 0 15 0 a7.5 7.5 0 1 0 -15 0zM529.27 448.62 a7.5 7.5 0 1 0 15 0 a7.5 7.5 0 1 0 -15 0zM594.22 561.12 a7.5 7.5 0 1 0 15 0 a7.5 7.5 0 1 0 -15 0zM529.27 598.62 a7.5 7.5 0 1 0 15 0 a7.5 7.5 0 1 0 -15 0zM464.32 561.12 a7.5 7.5 0 1 0 15 0 a7.5 7.5 0 1 0 -15 0zM464.32 486.12 a7.5 7.5 0 1 0 15 0 a7.5 7.5 0 1 0 -15 0zM724.13 111.12 a7.5 7.5 0 1 0 15 0 a7.5 7.5 0 1 0 -15 0zM789.09 148.62 a7.5 7.5 0 1 0 15 0 a7.5 7.5 0 1 0 -15 0zM789.09 223.62 a7.5 7.5 0 1 0 15 0 a7.5 7.5 0 1 0 -15 0zM724.13 261.12 a7.5 7.5 0 1 0 15 0 a7.5 7.5 0 1 0 -15 0zM659.18 223.62 a7.5 7.5 0 1 0 15 0 a7.5 7.5 0 1 0 -15 0zM659.18 148.62 a7.5 7.5 0 1 0 15 0 a7.5 7.5 0 1 0 -15 0zM854.04 561.12 a7.5 7.5 0 1 0 15 0 a7.5 7.5 0 1 0 -15 0zM918.99 598.62 a7.5 7.5 0 1 0 15 0 a7.5 7.5 0 1 0 -15 0zM918.99 673.62 a7.5 7.5 0 1 0 15 0 a7.5 7.5 0 1 0 -15 0zM854.04 711.12 a7.5 7.5 0 1 0 15 0 a7.5 7.5 0 1 0 -15 0zM789.08 673.62 a7.5 7.5 0 1 0 15 0 a7.5 7.5 0 1 0 -15 0zM789.08 598.62 a7.5 7.5 0 1 0 15 0 a7.5 7.5 0 1 0 -15 0zM918.99 448.62 a7.5 7.5 0 1 0 15 0 a7.5 7.5 0 1 0 -15 0zM983.95 486.12 a7.5 7.5 0 1 0 15 0 a7.5 7.5 0 1 0 -15 0zM983.95 561.12 a7.5 7.5 0 1 0 15 0 a7.5 7.5 0 1 0 -15 0zM854.04 486.12 a7.5 7.5 0 1 0 15 0 a7.5 7.5 0 1 0 -15 0zM1048.9 598.62 a7.5 7.5 0 1 0 15 0 a7.5 7.5 0 1 0 -15 0zM1048.9 673.62 a7.5 7.5 0 1 0 15 0 a7.5 7.5 0 1 0 -15 0zM983.95 711.12 a7.5 7.5 0 1 0 15 0 a7.5 7.5 0 1 0 -15 0zM1048.9 -1.38 a7.5 7.5 0 1 0 15 0 a7.5 7.5 0 1 0 -15 0zM1113.85 36.12 a7.5 7.5 0 1 0 15 0 a7.5 7.5 0 1 0 -15 0zM1113.85 111.12 a7.5 7.5 0 1 0 15 0 a7.5 7.5 0 1 0 -15 0zM1048.9 148.62 a7.5 7.5 0 1 0 15 0 a7.5 7.5 0 1 0 -15 0zM983.95 111.12 a7.5 7.5 0 1 0 15 0 a7.5 7.5 0 1 0 -15 0zM983.95 36.12 a7.5 7.5 0 1 0 15 0 a7.5 7.5 0 1 0 -15 0zM1048.9 223.62 a7.5 7.5 0 1 0 15 0 a7.5 7.5 0 1 0 -15 0zM1113.85 261.12 a7.5 7.5 0 1 0 15 0 a7.5 7.5 0 1 0 -15 0zM1113.85 336.12 a7.5 7.5 0 1 0 15 0 a7.5 7.5 0 1 0 -15 0zM1048.9 373.62 a7.5 7.5 0 1 0 15 0 a7.5 7.5 0 1 0 -15 0zM983.95 336.12 a7.5 7.5 0 1 0 15 0 a7.5 7.5 0 1 0 -15 0zM983.95 261.12 a7.5 7.5 0 1 0 15 0 a7.5 7.5 0 1 0 -15 0zM1178.81 373.62 a7.5 7.5 0 1 0 15 0 a7.5 7.5 0 1 0 -15 0zM1178.81 448.62 a7.5 7.5 0 1 0 15 0 a7.5 7.5 0 1 0 -15 0zM1113.85 486.12 a7.5 7.5 0 1 0 15 0 a7.5 7.5 0 1 0 -15 0zM1048.9 448.62 a7.5 7.5 0 1 0 15 0 a7.5 7.5 0 1 0 -15 0zM1113.85 561.12 a7.5 7.5 0 1 0 15 0 a7.5 7.5 0 1 0 -15 0zM1178.81 598.62 a7.5 7.5 0 1 0 15 0 a7.5 7.5 0 1 0 -15 0zM1178.81 673.62 a7.5 7.5 0 1 0 15 0 a7.5 7.5 0 1 0 -15 0zM1113.85 711.12 a7.5 7.5 0 1 0 15 0 a7.5 7.5 0 1 0 -15 0zM1243.76 561.12 a7.5 7.5 0 1 0 15 0 a7.5 7.5 0 1 0 -15 0zM1308.71 598.62 a7.5 7.5 0 1 0 15 0 a7.5 7.5 0 1 0 -15 0zM1308.71 673.62 a7.5 7.5 0 1 0 15 0 a7.5 7.5 0 1 0 -15 0zM1243.76 711.12 a7.5 7.5 0 1 0 15 0 a7.5 7.5 0 1 0 -15 0zM1308.72 223.62 a7.5 7.5 0 1 0 15 0 a7.5 7.5 0 1 0 -15 0zM1373.67 261.12 a7.5 7.5 0 1 0 15 0 a7.5 7.5 0 1 0 -15 0zM1373.67 336.12 a7.5 7.5 0 1 0 15 0 a7.5 7.5 0 1 0 -15 0zM1308.72 373.62 a7.5 7.5 0 1 0 15 0 a7.5 7.5 0 1 0 -15 0zM1243.76 336.12 a7.5 7.5 0 1 0 15 0 a7.5 7.5 0 1 0 -15 0zM1243.76 261.12 a7.5 7.5 0 1 0 15 0 a7.5 7.5 0 1 0 -15 0zM1438.62 -1.38 a7.5 7.5 0 1 0 15 0 a7.5 7.5 0 1 0 -15 0zM1503.58 36.12 a7.5 7.5 0 1 0 15 0 a7.5 7.5 0 1 0 -15 0zM1503.58 111.12 a7.5 7.5 0 1 0 15 0 a7.5 7.5 0 1 0 -15 0zM1438.62 148.62 a7.5 7.5 0 1 0 15 0 a7.5 7.5 0 1 0 -15 0zM1373.67 111.12 a7.5 7.5 0 1 0 15 0 a7.5 7.5 0 1 0 -15 0zM1373.67 36.12 a7.5 7.5 0 1 0 15 0 a7.5 7.5 0 1 0 -15 0zM1438.62 223.62 a7.5 7.5 0 1 0 15 0 a7.5 7.5 0 1 0 -15 0zM1503.58 261.12 a7.5 7.5 0 1 0 15 0 a7.5 7.5 0 1 0 -15 0zM1503.58 336.12 a7.5 7.5 0 1 0 15 0 a7.5 7.5 0 1 0 -15 0zM1438.62 373.62 a7.5 7.5 0 1 0 15 0 a7.5 7.5 0 1 0 -15 0zM1438.62 448.62 a7.5 7.5 0 1 0 15 0 a7.5 7.5 0 1 0 -15 0zM1503.58 486.12 a7.5 7.5 0 1 0 15 0 a7.5 7.5 0 1 0 -15 0zM1503.58 561.12 a7.5 7.5 0 1 0 15 0 a7.5 7.5 0 1 0 -15 0zM1438.62 598.62 a7.5 7.5 0 1 0 15 0 a7.5 7.5 0 1 0 -15 0zM1373.67 561.12 a7.5 7.5 0 1 0 15 0 a7.5 7.5 0 1 0 -15 0zM1373.67 486.12 a7.5 7.5 0 1 0 15 0 a7.5 7.5 0 1 0 -15 0z" fill="rgba(0, 0, 0, 0)"></path><path d="M9.86 299.68L32.38 312.68L32.38 338.68L9.86 351.68L-12.66 338.68L-12.66 312.68zM9.86 455.68L32.38 468.68L32.38 494.68L9.86 507.68L-12.66 494.68L-12.66 468.68zM54.89 65.68L77.41 78.68L77.41 104.68L54.89 117.68L32.38 104.68L32.38 78.68zM54.89 221.68L77.41 234.68L77.41 260.68L54.89 273.68L32.38 260.68L32.38 234.68zM77.41 338.68L99.93 351.68L99.93 377.68L77.41 390.68L54.89 377.68L54.89 351.68zM77.41 416.68L99.93 429.68L99.93 455.68L77.41 468.68L54.89 455.68L54.89 429.68zM122.45 26.68L144.96 39.68L144.96 65.68L122.45 78.68L99.93 65.68L99.93 39.68zM99.93 221.68L122.45 234.68L122.45 260.68L99.93 273.68L77.41 260.68L77.41 234.68zM167.48 260.68L190 273.68L190 299.68L167.48 312.68L144.96 299.68L144.96 273.68zM235.03 65.68L257.55 78.68L257.55 104.68L235.03 117.68L212.52 104.68L212.52 78.68zM235.03 221.68L257.55 234.68L257.55 260.68L235.03 273.68L212.52 260.68L212.52 234.68zM235.03 455.68L257.55 468.68L257.55 494.68L235.03 507.68L212.52 494.68L212.52 468.68zM235.03 533.68L257.55 546.68L257.55 572.68L235.03 585.68L212.52 572.68L212.52 546.68zM280.07 143.68L302.58 156.68L302.58 182.68L280.07 195.68L257.55 182.68L257.55 156.68zM302.58 260.68L325.1 273.68L325.1 299.68L302.58 312.68L280.07 299.68L280.07 273.68zM347.62 182.68L370.14 195.68L370.14 221.68L347.62 234.68L325.1 221.68L325.1 195.68zM347.62 338.68L370.14 351.68L370.14 377.68L347.62 390.68L325.1 377.68L325.1 351.68zM325.1 455.68L347.62 468.68L347.62 494.68L325.1 507.68L302.58 494.68L302.58 468.68zM347.62 494.68L370.14 507.68L370.14 533.68L347.62 546.68L325.1 533.68L325.1 507.68zM392.65 416.68L415.17 429.68L415.17 455.68L392.65 468.68L370.14 455.68L370.14 429.68zM370.14 455.68L392.65 468.68L392.65 494.68L370.14 507.68L347.62 494.68L347.62 468.68zM415.17 221.68L437.69 234.68L437.69 260.68L415.17 273.68L392.65 260.68L392.65 234.68zM415.17 377.68L437.69 390.68L437.69 416.68L415.17 429.68L392.65 416.68L392.65 390.68zM482.72 104.68L505.24 117.68L505.24 143.68L482.72 156.68L460.21 143.68L460.21 117.68zM460.21 299.68L482.72 312.68L482.72 338.68L460.21 351.68L437.69 338.68L437.69 312.68zM550.28 65.68L572.79 78.68L572.79 104.68L550.28 117.68L527.76 104.68L527.76 78.68zM550.28 299.68L572.79 312.68L572.79 338.68L550.28 351.68L527.76 338.68L527.76 312.68zM572.79 416.68L595.31 429.68L595.31 455.68L572.79 468.68L550.28 455.68L550.28 429.68zM617.83 182.68L640.34 195.68L640.34 221.68L617.83 234.68L595.31 221.68L595.31 195.68zM617.83 338.68L640.34 351.68L640.34 377.68L617.83 390.68L595.31 377.68L595.31 351.68zM640.34 221.68L662.86 234.68L662.86 260.68L640.34 273.68L617.83 260.68L617.83 234.68zM707.9 260.68L730.41 273.68L730.41 299.68L707.9 312.68L685.38 299.68L685.38 273.68zM685.38 533.68L707.9 546.68L707.9 572.68L685.38 585.68L662.86 572.68L662.86 546.68zM752.93 338.68L775.45 351.68L775.45 377.68L752.93 390.68L730.41 377.68L730.41 351.68zM730.41 377.68L752.93 390.68L752.93 416.68L730.41 429.68L707.9 416.68L707.9 390.68zM797.97 416.68L820.48 429.68L820.48 455.68L797.97 468.68L775.45 455.68L775.45 429.68zM865.52 -12.32L888.03 0.68L888.03 26.68L865.52 39.68L843 26.68L843 0.68zM865.52 65.68L888.03 78.68L888.03 104.68L865.52 117.68L843 104.68L843 78.68zM865.52 377.68L888.03 390.68L888.03 416.68L865.52 429.68L843 416.68L843 390.68zM910.55 -12.32L933.07 0.68L933.07 26.68L910.55 39.68L888.03 26.68L888.03 0.68zM910.55 455.68L933.07 468.68L933.07 494.68L910.55 507.68L888.03 494.68L888.03 468.68zM1000.62 143.68L1023.14 156.68L1023.14 182.68L1000.62 195.68L978.1 182.68L978.1 156.68zM1000.62 533.68L1023.14 546.68L1023.14 572.68L1000.62 585.68L978.1 572.68L978.1 546.68zM1068.17 104.68L1090.69 117.68L1090.69 143.68L1068.17 156.68L1045.66 143.68L1045.66 117.68zM1045.66 377.68L1068.17 390.68L1068.17 416.68L1045.66 429.68L1023.14 416.68L1023.14 390.68zM1045.66 455.68L1068.17 468.68L1068.17 494.68L1045.66 507.68L1023.14 494.68L1023.14 468.68zM1090.69 143.68L1113.21 156.68L1113.21 182.68L1090.69 195.68L1068.17 182.68L1068.17 156.68zM1090.69 377.68L1113.21 390.68L1113.21 416.68L1090.69 429.68L1068.17 416.68L1068.17 390.68zM1158.24 26.68L1180.76 39.68L1180.76 65.68L1158.24 78.68L1135.72 65.68L1135.72 39.68zM1135.72 221.68L1158.24 234.68L1158.24 260.68L1135.72 273.68L1113.21 260.68L1113.21 234.68zM1158.24 416.68L1180.76 429.68L1180.76 455.68L1158.24 468.68L1135.72 455.68L1135.72 429.68zM1225.79 65.68L1248.31 78.68L1248.31 104.68L1225.79 117.68L1203.28 104.68L1203.28 78.68zM1248.31 338.68L1270.83 351.68L1270.83 377.68L1248.31 390.68L1225.79 377.68L1225.79 351.68zM1270.83 65.68L1293.35 78.68L1293.35 104.68L1270.83 117.68L1248.31 104.68L1248.31 78.68zM1293.35 260.68L1315.86 273.68L1315.86 299.68L1293.35 312.68L1270.83 299.68L1270.83 273.68zM1315.86 221.68L1338.38 234.68L1338.38 260.68L1315.86 273.68L1293.35 260.68L1293.35 234.68zM1360.9 221.68L1383.42 234.68L1383.42 260.68L1360.9 273.68L1338.38 260.68L1338.38 234.68zM1360.9 299.68L1383.42 312.68L1383.42 338.68L1360.9 351.68L1338.38 338.68L1338.38 312.68zM1405.93 143.68L1428.45 156.68L1428.45 182.68L1405.93 195.68L1383.42 182.68L1383.42 156.68zM1405.93 221.68L1428.45 234.68L1428.45 260.68L1405.93 273.68L1383.42 260.68L1383.42 234.68zM1428.45 494.68L1450.97 507.68L1450.97 533.68L1428.45 546.68L1405.93 533.68L1405.93 507.68zM1405.93 533.68L1428.45 546.68L1428.45 572.68L1405.93 585.68L1383.42 572.68L1383.42 546.68z" stroke="rgba(163, 193, 167, 1)" stroke-width="2"></path></g><defs><mask id="SvgjsMask1055"><rect width="1440" height="560" fill="#ffffff"></rect></mask></defs></svg>